<?xml version="1.0" encoding="utf-8"?>
<!-- Generator: Adobe Illustrator 19.0.0, SVG Export Plug-In . SVG Version: 6.00 Build 0)  -->
<svg version="1.1" id="Layer_1" xmlns="http://www.w3.org/2000/svg" xmlns:xlink="http://www.w3.org/1999/xlink" x="0px" y="0px"
	 viewBox="0 0 500 500" style="enable-background:new 0 0 500 500;" xml:space="preserve">
<style type="text/css">
	.st0{fill:#FFFFFF;}
</style>
<g id="XMLID_2_">
	<path id="XMLID_38_" class="st0" d="M330.3,186.6c0,21.7-0.1,43.4,0,65.1c0.1,22.5-6.6,42.7-21.2,59.8c-15,17.5-34,27.9-57,30.7
		c-17.9,2.2-35.4,0.1-51.7-8c-26.5-13.2-43-34.4-48.8-63.6c-1.2-6-1.6-12.3-1.7-18.5c-0.1-44.5-0.1-89-0.1-133.5
		c0-36.5,22.3-69.8,56.6-82.5c33.3-12.4,64.8-7.9,92.4,15c18.6,15.4,28.8,35.6,30.9,59.8c0.3,3.7,0.5,7.3,0.5,11
		C330.3,143.4,330.3,165,330.3,186.6z M306.1,104.5c0.1,0,0.2,0,0.2,0c-0.3-2.6-0.5-5.2-0.9-7.8c-3.4-23-25.3-41.6-48.5-41.1
		c-4.6,0.1-8.7,3.1-9.7,7.2c-1.7,6.6,2.6,12.5,9.6,12.5c17.1,0.1,30.7,14.8,29.6,30.8c-0.1,1.5,0,3,0.3,4.5
		c0.9,4.9,5.3,8.3,10.1,8.1c4.9-0.3,8.9-4.1,9.3-9C306.2,107.9,306.1,106.2,306.1,104.5z"/>
	<path id="XMLID_35_" class="st0" d="M201.4,384.7c-8.8-3.8-17.3-6.8-25.2-11.2c-32.2-17.8-54.9-43.8-65.7-79.3
		c-3.7-12.1-5.2-24.6-5.3-37.3c0-7.3,5.6-13.9,12.3-14.8c8-1,15,3.3,16.7,11c0.9,4.1,0.6,8.4,0.9,12.6c1.6,21.9,9.8,41,24.3,57.4
		c13.2,15,29,26.1,48.3,32c13.8,4.2,27.9,5.1,42.2,3.8c28.3-2.6,51.2-15.7,70.3-36.2c15-16.2,23.5-35.4,25-57.5
		c0.3-3.8,0.1-7.8,0.8-11.5c1.6-7.9,8.5-12.4,16.6-11.5c7,0.8,12.5,7.3,12.5,14.9c-0.2,26.6-7.2,51.1-22.9,72.8
		c-14.7,20.4-33.6,35.9-56.3,46.8c-4.8,2.3-9.9,4-14.9,5.8c-1.7,0.6-2.1,1.3-2.1,3c0.1,9.4,0,18.9,0,28.3c0,19.3-12.3,34.6-31,38.8
		c-21.1,4.7-43.4-10.6-45.8-32.1c-1.1-9.8-0.5-19.8-0.6-29.6C201.3,388.4,201.4,386.2,201.4,384.7z M230.8,388.7c0,8.6,0,17,0,25.4
		c0,5.5,4.1,9.6,9.3,9.6c5.2,0,9.3-4.1,9.3-9.6c0-7.8,0-15.6,0-23.5c0-0.6-0.1-1.3-0.2-1.9C243.1,388.7,237.2,388.7,230.8,388.7z"/>
</g>
</svg>
